<svg preserveAspectRatio="xMidYMid meet" data-bbox="43 36 114 128" viewBox="43 36 114 128" height="200" width="200" xmlns="http://www.w3.org/2000/svg" data-type="color" role="presentation" aria-hidden="true" aria-label=""><defs><style>#comp-m9sc1o4g3 svg [data-color="1"] {fill: #FFFFFF;}</style></defs>
    <g>
        <path d="M157 146.667V160a4 4 0 0 1-8 0v-13.333C149 134.168 138.906 124 126.5 124h-53C61.094 124 51 134.168 51 146.667V160a4 4 0 0 1-8 0v-13.333C43 129.757 56.683 116 73.5 116h53c16.817 0 30.5 13.757 30.5 30.667zm-87.5-80C69.5 49.757 83.183 36 100 36s30.5 13.757 30.5 30.667c0 16.909-13.683 30.666-30.5 30.666S69.5 83.576 69.5 66.667zm8 0c0 12.498 10.094 22.666 22.5 22.666s22.5-10.168 22.5-22.666C122.5 54.168 112.406 44 100 44S77.5 54.168 77.5 66.667z" fill="#000001" data-color="1"></path>
    </g>
</svg>