<svg preserveAspectRatio="xMidYMid meet" data-bbox="28.5 37.5 142.999 125" viewBox="28.5 37.5 142.999 125" height="200" width="200" xmlns="http://www.w3.org/2000/svg" data-type="color" role="presentation" aria-hidden="true" aria-label=""><defs><style>#comp-m9sc1o4j svg [data-color="1"] {fill: #FFFFFF;}</style></defs>
    <g>
        <path d="M93.331 142.92c-5.392 0-9.78 4.392-9.78 9.79 0 5.399 4.388 9.79 9.78 9.79 5.392 0 9.779-4.392 9.779-9.79 0-5.399-4.387-9.79-9.779-9.79z" fill="#2F54DD" data-color="1"></path>
        <path d="M129.502 142.92c-5.392 0-9.779 4.392-9.779 9.79 0 5.399 4.386 9.79 9.779 9.79 5.392 0 9.78-4.392 9.78-9.79 0-5.399-4.387-9.79-9.78-9.79z" fill="#2F54DD" data-color="1"></path>
        <path d="M63.386 66.861c-.19 0-.377.012-.561.037l-5.34-17.343-28.696-11.967c-.095-.039-.192-.056-.289-.088v9.113l22.092 9.212 23.849 77.455h76.515l20.543-66.42H63.386zm81.355 57.977H80.665L65.414 75.304h94.648l-15.321 49.534z" fill="#2F54DD" data-color="1"></path>
    </g>
</svg>