<svg preserveAspectRatio="xMidYMid meet" data-bbox="26.5 36.011 147 127.998" viewBox="26.5 36.011 147 127.998" height="200" width="200" xmlns="http://www.w3.org/2000/svg" data-type="color" role="presentation" aria-hidden="true" aria-label=""><defs><style>#comp-m9sc1o4h5 svg [data-color="1"] {fill: #000000;}</style></defs>
    <g>
        <path d="M161.646 47.804l-.035-.035-.002-.002c-15.816-15.671-41.556-15.676-57.378-.01l-.033.033-4.199 4.159-4.224-4.183c-15.82-15.671-41.564-15.671-57.385 0-7.667 7.594-11.89 17.69-11.89 28.43s4.223 20.837 11.889 28.43l58.784 58.223c.78.773 1.803 1.16 2.825 1.16s2.045-.387 2.825-1.16l58.784-58.222c7.666-7.59 11.89-17.684 11.893-28.421.003-10.726-4.208-20.813-11.854-28.402zm-5.689 51.204l-55.959 55.424L44.04 99.008c-6.151-6.093-9.54-14.195-9.54-22.811s3.389-16.718 9.54-22.811c6.354-6.292 14.697-9.438 23.042-9.438s16.688 3.146 23.042 9.438l7.049 6.982a4.02 4.02 0 0 0 5.65 0l7.052-6.984.032-.032c12.7-12.548 33.331-12.541 46.025.011l.035.035c6.149 6.093 9.534 14.194 9.532 22.808s-3.39 16.711-9.542 22.802z" fill="#000001" data-color="1"></path>
    </g>
</svg>