<svg height="100%" width="100%">
    <defs>
        <filter x="0" y="0" width="120" height="127" filterUnits="userSpaceOnUse" id="comp-ma2gzcah-shadow_comp-ma2gzcah" color-interpolation-filters="sRGB">
            <feComponentTransfer result="srcRGB"></feComponentTransfer>
            <feGaussianBlur stdDeviation="0" in="SourceAlpha"></feGaussianBlur>
            <feOffset dx="0" dy="7"></feOffset>
            <feColorMatrix type="matrix" values="0 0 0 0 0.6666666666666666
0 0 0 0 0.4823529411764706
0 0 0 0 0.30980392156862746
0 0 0 0.73 0"></feColorMatrix>
            <feMerge>
                <feMergeNode></feMergeNode>
                <feMergeNode in="SourceGraphic"></feMergeNode>
            </feMerge>
            <feComponentTransfer></feComponentTransfer>
        </filter>
    </defs>
    <g filter="url(#comp-ma2gzcah-shadow_comp-ma2gzcah)">
        <svg preserveAspectRatio="none" data-bbox="20 20.447 160 160.004" viewBox="20 20.447 160 160.004" height="100%" width="100%" xmlns="http://www.w3.org/2000/svg" data-type="shape" role="presentation" aria-hidden="true" aria-label="">
            <g>
                <path d="M180 101.489l-.137.128-.654-.689c-4.891-4.976-7.715-12.348-7.659-19.239.024-3.245 1.324-6.355 1.202-9.6a29.031 29.031 0 0 0-1.307-7.557 18.464 18.464 0 0 0-1.864-4.055 20.693 20.693 0 0 0-2.139-2.877 28.956 28.956 0 0 0-5.246-4.616c-2.695-1.843-6.037-2.436-8.805-4.159-5.883-3.654-10.62-9.976-12.226-16.748-6.747 1.859-16.084.232-22.145-3.125-2.857-1.587-4.979-4.207-7.909-5.665a28.846 28.846 0 0 0-7.295-2.492 18.365 18.365 0 0 0-3.817-.346 18.427 18.427 0 0 0-3.817.346 28.867 28.867 0 0 0-7.296 2.492c-2.929 1.458-5.052 4.079-7.909 5.665-6.061 3.357-15.398 4.984-22.145 3.125-1.606 6.771-6.343 13.094-12.226 16.748-2.768 1.723-6.109 2.316-8.805 4.159a28.956 28.956 0 0 0-5.246 4.616 20.713 20.713 0 0 0-2.139 2.877 18.443 18.443 0 0 0-1.864 4.055 28.94 28.94 0 0 0-1.307 7.557c-.121 3.245 1.178 6.354 1.202 9.6.057 6.891-2.768 14.263-7.659 19.239l-.654.689-.134-.128c5.076 4.784 8.191 12.036 8.409 18.927.097 3.245-1.073 6.403-.823 9.648a28.56 28.56 0 0 0 1.372 6.819 20.39 20.39 0 0 0 1.429 3.285 17.819 17.819 0 0 0 2.59 3.638 29.389 29.389 0 0 0 5.908 4.928c2.768 1.739 6.125 2.196 8.958 3.806 6.028 3.43 11.016 9.559 12.888 16.259l.492 1.074c6.722-1.939 14.599-.962 20.7 2.324 2.873 1.546 5.036 4.143 7.981 5.561a28.725 28.725 0 0 0 6.626 2.26c1.109.234 2.234.367 3.365.417v.016c.035-.001.07-.007.105-.008.035.001.07.007.105.008v-.016a20.606 20.606 0 0 0 3.365-.417 28.74 28.74 0 0 0 6.626-2.26c2.946-1.418 5.108-4.015 7.981-5.561 6.101-3.286 13.978-4.263 20.7-2.324l.492-1.074c1.872-6.699 6.86-12.829 12.888-16.259 2.833-1.611 6.19-2.067 8.958-3.806a29.383 29.383 0 0 0 5.907-4.928 17.823 17.823 0 0 0 2.591-3.638 20.424 20.424 0 0 0 1.428-3.285 28.62 28.62 0 0 0 1.372-6.819c.25-3.245-.92-6.402-.823-9.648.219-6.891 3.334-14.143 8.41-18.927z"></path>
            </g>
        </svg>

    </g>
</svg>