<svg preserveAspectRatio="none" data-bbox="-0.033 -0.031 186.725 284.941" viewBox="-0.033 -0.031 186.725 284.941" xmlns="http://www.w3.org/2000/svg" data-type="shape" role="presentation" aria-hidden="true" aria-label="">
    <g>
        <g>
            <path d="M129.86 284.91c-20.41-.25-35.5-7.58-47.34-21.6a52.64 52.64 0 0 1-10.87-20.74c-.75-2.84-1.35-5.73-1.88-8.63a2.15 2.15 0 0 0-2.27-2.09c-14.41-1.6-27.57-6.38-39.24-15.19a70.5 70.5 0 0 1-21.86-27A71.8 71.8 0 0 1 1 171.82a84.3 84.3 0 0 1-.91-17.72 92.2 92.2 0 0 1 3.18-19.7c2.27-8.73 5.65-17 9.1-25.33s7-16.83 10.24-25.35a196 196 0 0 0 7.63-23.86 82 82 0 0 0 2.43-19.43 44.32 44.32 0 0 0-11.52-30.36c-2.44-2.7-2.49-5.94-.46-8.19A5.82 5.82 0 0 1 27.32.45c5.16 1.8 10.28 3.72 15.31 5.86A147.3 147.3 0 0 1 67.52 19.7c7.07 4.79 14 9.87 20.61 15.23 10.17 8.2 18.71 18 26.34 28.58a147.2 147.2 0 0 1 15.44 27.17 131 131 0 0 1 7.63 22c1.54 6.46 2.61 13 3.76 19.59a121.6 121.6 0 0 1 1.63 22.78c-.05 3.65-.51 7.29-.9 10.92-.28 2.72-.1 2.94 2.62 3.74a57 57 0 0 1 20.21 10.64 64 64 0 0 1 5.41 5c1.17 1.21 2 2.76 3.13 4a43 43 0 0 1 9 14.63 68 68 0 0 1 3.16 11 70 70 0 0 1 1.13 11.81 54.24 54.24 0 0 1-5.46 24.06 58.26 58.26 0 0 1-22 25 51.3 51.3 0 0 1-19.68 7.74c-3.86.64-7.73 1.07-9.69 1.32M49 215.71l.29-.43c-1.34-1.71-2.76-3.36-4-5.12A40.2 40.2 0 0 1 38 191.58a46.8 46.8 0 0 1 .69-17.29c1.29-5.17 2.37-10.42 4-15.47 1.81-5.47 4.16-10.77 6.31-16.13 2.85-7.12 5.86-14.18 8.55-21.36 2.87-7.64 4.93-15.46 4.13-23.78a5.74 5.74 0 0 1 3.55-5.74 5.55 5.55 0 0 1 6.24 1.38c1.08 1.14 2 2.4 3 3.63a176 176 0 0 1 17.7 26.71c4.6 8.49 9.13 17.06 11.69 26.47 1.4 5.14 2.71 10.31 4 15.48.4 1.6.55 3.26.83 5 2-.57 3.69-1.1 5.39-1.51a49.3 49.3 0 0 1 14.41-1.59c1.55.08 2.22-.61 2.29-2.06.17-3.21.55-6.44.44-9.64-.2-6.55-.49-13.1-1.09-19.62a101 101 0 0 0-2.24-13.56 161 161 0 0 0-5-18 168 168 0 0 0-8.3-19.19 124.2 124.2 0 0 0-16.71-24.52 160.6 160.6 0 0 0-26-24.15 177 177 0 0 0-27.34-16.7c-1.39-.7-2.85-1.27-4.49-2a5.3 5.3 0 0 0 .08 1A47.9 47.9 0 0 1 44 34.1a68.2 68.2 0 0 1-.83 20c-1 5-2 10-3.43 14.86-1.44 5.14-3.15 10.21-5 15.21-2.27 6.12-4.8 12.14-7.24 18.2-2.14 5.31-4.41 10.56-6.43 15.92-2.24 5.83-4.35 11.71-6.3 17.71a71.2 71.2 0 0 0-3.09 17 66 66 0 0 0 3.14 26.29 58.5 58.5 0 0 0 6.23 13.07 57.9 57.9 0 0 0 17.84 17.68c3.27 2.08 6.75 3.8 10.11 5.67m73.16-36.4c-22 2.47-38.51 20.43-41.05 40.73.6.05 1.2.14 1.8.15 3.1 0 6.2-.05 9.29 0a5.84 5.84 0 0 1 6 5.94c-.06 3.39-2.55 5.73-6.17 5.76H81.15a47.25 47.25 0 0 0 40.92 41c0-.68.1-1.35.11-2 0-3.16-.05-6.32 0-9.48a5.84 5.84 0 0 1 7.29-5.46 6.23 6.23 0 0 1 4.4 6.11c.05 3 0 5.94 0 8.91 0 .65.1 1.29.16 2 24.45-3.29 39.44-23.91 40.55-41-.62 0-1.24-.08-1.85-.09h-9.29c-2.7 0-4.82-1.78-5.78-4.62a5.12 5.12 0 0 1 2.16-5.63 9.3 9.3 0 0 1 4.38-1.41c3.38-.2 6.78-.06 10.17-.06-.53-18-17.56-38.61-40.51-40.77 0 3.35.07 6.68 0 10a12.4 12.4 0 0 1-.77 3.85c-.76 2-4 3.67-5.92 3.18a6.2 6.2 0 0 1-5-6.43c0-3.48.01-6.99.01-10.68Zm-50-66.31c-.54 1.77-.9 3.1-1.36 4.41-2.45 7-4.69 14-7.44 20.91-3.85 9.68-8.36 19-11.36 28.94a59 59 0 0 0-3 16.81 33.9 33.9 0 0 0 1.75 11.87c2.78 7.73 8.15 13.33 14.64 18 1.34 1 2.79 1.79 4.34 2.77a16 16 0 0 0 .81-2.24A54.2 54.2 0 0 1 78.21 195a59.5 59.5 0 0 1 18-18.31c.54-.36 1.32-1 1.28-1.43a51.5 51.5 0 0 0-1-8.43c-1.17-4.88-2.53-9.72-4.12-14.47a103 103 0 0 0-5.08-13c-3.07-6.24-6.54-12.3-10-18.37-1.47-2.67-3.29-5.15-5.13-7.99"></path>
            <path d="M133.92 213.6v5.12c0 1 .46 1.42 1.49 1.49a19 19 0 0 1 3.68.61 5.27 5.27 0 0 1 3.83 5.1 5.34 5.34 0 0 1-3.15 5.2 8 8 0 0 1-3.24.77c-2.65.11-5.31.06-8 0a6.09 6.09 0 0 1-6.37-6.26v-17.06a6 6 0 0 1 4.16-5.7 5.24 5.24 0 0 1 6.26 2.27 13.5 13.5 0 0 1 1.25 4.64 25 25 0 0 1 0 3.78Z"></path>
        </g>
    </g>
</svg>