<svg preserveAspectRatio="none" data-bbox="0.063 -0.002 356.949 249.322" viewBox="0.063 -0.002 356.949 249.322" xmlns="http://www.w3.org/2000/svg" data-type="shape" role="presentation" aria-hidden="true" aria-label="">
    <g>
        <g>
            <path d="M22.7 239.32c-1.29-.54-2.27-1-3.27-1.38-5.94-2.36-11.71-5.05-16.78-9A9.5 9.5 0 0 1 1 227.33c-1.73-2.23-1-5.32 1.65-6a16.3 16.3 0 0 1 6.89-.21c6.71 1.27 12.76 4.38 18.78 7.49 1.79.92 3.59 1.85 5.29 2.92a2.9 2.9 0 0 0 3.39 0c9.71-5.42 19.43-10.82 29.21-16.12 11-6 22-11.78 33.06-17.64a3.8 3.8 0 0 0 2-2.4 5.22 5.22 0 0 1 2.36-2.62q13.47-7.09 27-14 19.6-9.87 39.3-19.57c2.31-1.15 4.75-2 7.07-3.16 1.67-.82 3.18-2 4.87-2.79 31.26-14.69 62.51-29.4 94.45-42.57 17.85-7.36 35.85-14.37 53.79-21.53a12 12 0 0 1 2-.69 3.59 3.59 0 0 1 2.26 6.82c-2.64 1.09-5.34 2.06-8 3.08q-37.6 14.25-74.3 30.66c-21.18 9.52-42.2 19.38-63.29 29.09-3.16 1.45-6.39 2.76-9.5 4.3q-12.92 6.4-25.75 12.94-22.89 11.67-45.72 23.32c-1.81.92-3.51 1.61-5.52.46-.48-.28-1.5.09-2.13.42-8.4 4.47-16.82 8.82-25.16 13.34-11.67 6.32-23.29 12.74-34.92 19.13-.6.33-1.17.71-1.76 1.07v.53c3.28.94 6.5 2.14 9.84 2.76 8.43 1.56 16.9 2.91 25.38 4.26a72 72 0 0 0 9.35 1c5.58.13 11.17 0 16.75-.09q20.58-.27 41.17-.59 34-.53 67.91-1.1c3 0 6 0 9-.13 1.51-.06 3.18-.94 4.48-.52a8.1 8.1 0 0 0 2.72.28q22.54-.26 45.08-.6c6.83-.09 13.66-.15 20.5-.26 18.34-.3 36.68-.65 55-.9a45 45 0 0 1 6.55.6 6.3 6.3 0 0 1 2.16.87c2.4 1.34 3.24 3 2.59 4.83a5.79 5.79 0 0 1-5.49 3.61c-3.88-.09-7.77.06-11.65 0-1.75 0-3.49-.35-5.24-.32-4.28.07-8.56.35-12.84.38q-35.43.3-70.85.5-25.86.18-51.72.32l-63.81.42c-16.92.12-33.83.33-50.75.4-4.23 0-8.47-.52-12.71-.59a124.6 124.6 0 0 1-23.59-2.84c-6.8-1.42-13.51-3.27-20.23-5.08a5 5 0 0 0-4.56.51 74 74 0 0 1-6.77 3.88c-.49.26-1.24 0-1.88 0 .3-.56.44-1.34.9-1.64 1.68-1.11 3.47-2.06 5.2-3.08.55-.25 1.06-.61 1.89-1.16"></path>
            <path d="M288.09 62.25c.23-.76.34-1.27.54-1.74.85-2 1.81-4 2.57-6a7.09 7.09 0 0 0-.44-6 46.4 46.4 0 0 0-4.15-6.31c-4.94-6.09-5.49-13.16-1.34-19.49.29-.44.55-1.05 1-1.2.71-.26 1.74-.55 2.25-.22s.5 1.42.44 2.15c0 .52-.58 1-.88 1.5-3.06 5.14-2.63 10.24 1.22 14.8 1 1.2 2 2.4 2.89 3.68 2.06 2.94 2.27 6.24 2.34 9.75.04 3.23-1.53 5.83-2.53 8.61a2.7 2.7 0 0 1-1 1.42 2.8 2.8 0 0 1-1.95.32c-.4-.14-.68-.89-.96-1.27"></path>
            <path d="M299.9 1.39c-.36.75-.6 1.28-.87 1.79-3.48 6.34-3 10.72 1.77 16.19 4.6 5.28 5.14 12 1.36 17.82a3.65 3.65 0 0 1-1.51 1.41 2 2 0 0 1-1.77-.28 2.23 2.23 0 0 1-.37-1.72 4.5 4.5 0 0 1 .77-1.55c2.82-4.78 2.35-9.19-1.27-13.47a22.6 22.6 0 0 1-3.41-4.95c-2.5-5.52-1.49-10.8 1.72-15.73a3 3 0 0 1 2.26-.9c.42 0 .88.9 1.32 1.39"></path>
            <path d="M318.4 32.5c-.72 3.83-1.51 6.87-3.64 9.38-.72.84-1.46 1.66-2.15 2.52-3.34 4.15-2.76 8.52-.72 13 .3.65.7 1.25 1 1.88a1.66 1.66 0 0 1-.52 2.39 1.59 1.59 0 0 1-2.39-.52 19.3 19.3 0 0 1-2.54-5.43c-.74-3.78-1.27-7.69 1.19-11.18 1.28-1.83 2.69-3.59 3.94-5.44a19 19 0 0 0 1.3-2.77c1.57-3.48.6-6.65-1.16-9.74-.63-1.09-1.69-2.26-.1-3.38 1-.73 2.37-.23 3.17 1.64 1.22 2.63 1.9 5.45 2.62 7.65"></path>
        </g>
    </g>
</svg>