<svg preserveAspectRatio="xMidYMid meet" data-bbox="0.011 0.054 302.668 306.621" viewBox="0.011 0.054 302.668 306.621" xmlns="http://www.w3.org/2000/svg" data-type="shape" role="presentation" aria-hidden="true" aria-label="">
    <g>
        <g>
            <path d="M50.29 148.44 98 160.8c16.38 4.24 32.74 8.51 49.15 12.64a15.1 15.1 0 0 0 7 .39q48.13-12.29 96.17-24.88a33 33 0 0 0 3.2-1.37c-9.7-2.6-18.36-4.9-27-7.25-3.13-.85-8-.84-6.72-5.57s5.59-2.35 8.66-1.57c11.49 2.88 23 5.8 34.38 9 4.11 1.14 6.51.33 8.91-3.46 6.47-10.2 13.47-20.06 20.77-30.82-3.21-1-5.81-2-8.49-2.69q-26.67-6.92-53.37-13.73a6 6 0 0 1-.69-.21c-2.72-1.09-7.28-.82-6.2-5.34s4.77-2.79 7.83-2q16.83 4.39 33.69 8.71c10.54 2.71 21.1 5.33 31.61 8.13 6.58 1.76 7.26 3.44 3.46 9.13-8.34 12.46-16.84 24.82-25.68 37.81q7.2 10.71 14.44 21.46c3.67 5.41 7.44 10.74 11.05 16.19 3.91 5.92 3.22 7.8-3.51 9.59-7.43 2-14.9 3.82-22.62 5.79 0 20.67.09 40.75 0 60.84-.1 16.38 2.33 13.57-14 17.82q-51.65 13.4-103.3 26.59a22.4 22.4 0 0 1-10.58.08c-36.8-9.29-73.53-18.81-110.28-28.29-6.94-1.79-7.23-2.13-7.24-9.37v-67.51c-7.07-1.91-14-3.84-20.91-5.64-9.27-2.4-9.61-3.25-4.1-11.42l24.34-36Q17.26 132 6.57 116.11c-1.49-2.21-3.12-4.32-4.51-6.59-3.25-5.28-2.61-7.06 3.44-8.68 11.68-3.13 23.4-6.07 35.11-9.08l19-4.84c1.17-.29 2.32-.73 3.5-.93 2.56-.44 5.42-.32 5.49 2.84 0 1.45-2.14 3.79-3.76 4.28-7.62 2.32-15.4 4.12-23.12 6.14-10.22 2.67-20.43 5.37-31.72 8.34 7.9 11.72 15.17 22.74 22.87 33.41.92 1.28 4.35 1.57 6.33 1.12 9.42-2.12 18.8-4.7 28.11-7.12 1.17-.31 2.46-1.13 3.47-.87a31 31 0 0 1 5.33 2.47c-1.15 1.57-2 4-3.52 4.54-5.22 1.84-10.68 3-16.05 4.45l-6.25 1.7Zm96.77 150.2v-107c-6.93 10.18-13.13 18.76-18.72 27.72-3 4.74-6.21 5.68-11.43 4.28C92.65 217.18 68.31 211 44 204.76c-2.26-.58-4.56-1-7.36-1.55v66.87Zm119-95.43c-2.8.58-5.11 1-7.36 1.54-24.33 6.25-48.7 12.45-72.93 18.91-5.18 1.38-8.56.57-11.43-4.28-3.94-6.64-8.57-12.88-12.93-19.26-1.67-2.44-3.44-4.8-6-8.41v107L266 270.06Zm-121.17-22c-2.15-.77-3.68-1.45-5.28-1.86q-45.95-11.87-91.92-23.68c-13.33-3.43-13.38-3.44-21 7.73-5.41 7.89-10.71 15.87-16.66 24.7l110.83 28.69Zm12.61-.33c8.61 12.62 16.58 24.32 24.5 35.92L292.74 188c-8-11.8-15.15-22.69-22.8-33.22-1-1.39-4.73-1.72-6.88-1.21-12.69 3-25.29 6.39-37.91 9.67Z"></path>
            <path d="M150.23 41.71c14.65-10.17 30.9-13.91 48.16-14.53 8-.29 15.91-1.34 23.86-2 4.84-.37 7 1.77 5.13 5.79-9.14 19.26-8 40.08-9.79 60.47-1 11.4-3.36 22.45-8.2 32.87-12.33 26.69-38.69 36.5-65.39 24.3-4.77-2.18-9-3-14.4-1.83-21.87 4.69-39.93-4.95-48.63-25.64a70.5 70.5 0 0 1-5.21-18.76c-3-25.63-1.42-50.71 11.22-74 4.49-8.29 8.74-16.7 13.31-24.94 2.5-4.53 4.74-4.3 8.13-.59 7.14 7.81 14.35 15.58 22 22.83 6.05 5.57 12.78 10.32 19.81 16.03M218 33.45c-7.45.5-13.69 1.26-19.94 1.29-23.11.08-42.17 9.56-58.6 25-12.73 12-22.08 25.62-20.89 44.34 1 15.38 14.06 32.67 29 37 0-7.34-.33-14.53.07-21.68.86-15.25 6.09-28.78 17.14-39.68a16 16 0 0 1 5.22-3.81 4.74 4.74 0 0 1 4.32 1.09c.68.85.28 3.11-.39 4.34-.76 1.42-2.38 2.36-3.59 3.55C156.56 98.48 150 127.76 157 145c22 5 37.29-7.09 44.76-22.37 5.08-10.4 7.48-21.41 8.41-32.81 1.48-18.55 1.13-37.31 7.83-56.37M128 139a11.5 11.5 0 0 0-1.07-1.78c-14.62-14.95-19.35-32.39-13.74-52.68.48-1.76-.61-4.56-1.9-6.1-5.56-6.64-7.06-14.23-5.68-22.44.27-1.57 2.56-2.81 3.92-4.2 1.11 1.58 2.61 3 3.21 4.8.51 1.49-.1 3.34-.07 5 .07 4.64 1.17 8.82 4.37 11.34l25.53-27.2-38.21-33c.23-.2-.22 0-.43.4-2 3.58-3.85 7.26-6 10.76C84.44 45.84 80.33 69.74 82.38 95c.88 10.73 3.24 21 9.23 30.18C99.7 137.51 112.79 142.56 128 139"></path>
        </g>
    </g>
</svg>