<svg preserveAspectRatio="xMidYMid meet" data-bbox="0 0 282.669 323.18" viewBox="0 0 282.669 323.18" xmlns="http://www.w3.org/2000/svg" data-type="shape" role="presentation" aria-hidden="true" aria-label="">
    <g>
        <g>
            <path d="M66.86 86.86c-10.72 10.33-20.4 19.65-31.62 30.44L0 82.39c4.73-5.18 8-9.09 11.64-12.7 18.1-18.14 36.92-35.62 54.25-54.47C80.6-.79 98.63.41 118.37 0c-.52 23.46-2.25 44.34-23.58 57.91 4.71 5 8.19 8.81 11.85 12.46q63.29 63.19 126.63 126.35c3 3 6.26 5.7 8.59 9.11 1.61 2.36 3.43 7.1 2.36 8.34a199 199 0 0 1-20.81 20.59c-1.24 1.06-6-.84-8.32-2.46-3.41-2.33-6.16-5.62-9.14-8.56Q142.4 160.83 78.83 97.91c-3.31-3.28-6.83-6.34-11.97-11.05m164.89 127.73L85.94 67.57c-3 3.25-6.43 7-8.61 9.32L222.9 224.2ZM106.47 11.82c-17.22-1.22-22.08.24-31.64 9.71q-25.57 25.34-51 50.84c-2.84 2.85-5.18 6.19-8.2 9.85l18.59 19.37c3-1.93 5-2.75 6.42-4.12C60.08 78.55 79.58 59.7 98.75 40.52c7.97-7.97 8.47-18.24 7.72-28.7"></path>
            <path d="M239.37 187.36c-.91-5.12-2.65-10.24-2.58-15.35.31-22.46 1.48-44.9 1.67-67.36.13-15.13-.63-30.28-1.44-45.39-.39-7.2-.35-15.6-10.39-16.63-7.17-.74-11.65 6.48-11.81 18.85-.34 26.66-.3 53.32-.72 80-.09 5.21-1.57 10.4-2.56 16.61-9.61-4.1-7.25-10.57-7.25-15.7 0-29.79.26-59.59.41-89.39 0-4.18 0-8.37-.27-12.54-.33-5.95-3.74-11-9.25-10.69-4.22.25-9.76 3.94-11.86 7.7-2.63 4.67-3 11-3.15 16.59-.38 19.33-.15 38.68-.31 58 0 4.89 1.2 10.51-4.48 13.4-7.33-3.1-5.22-9.06-5.3-13.87-.28-16.2-.12-32.41-.17-48.61 0-3.66 0-7.33-.34-11-.5-5.95-3.67-9.87-9.76-10.33-6.38-.49-10 3.92-10.83 9.26-1.19 7.69-.64 15.63-1.34 23.43-.57 6.35-1.89 12.63-2.87 18.95l-3.78.45c-1.52-2.77-4.39-5.56-4.33-8.29.34-12.45.54-25.1 2.52-37.45 1.87-11.6 11.1-17.36 23-16.4a84 84 0 0 1 8.89 1.64c15.41-18.82 29.26-19.73 45.17.62a54.5 54.5 0 0 1 7.08-1.47c12.17-1 20.38 4.36 22.7 16.46 2.14 11.12 2.6 22.57 3.75 33.46 1.58.78 2.47 1.58 3.38 1.62 23.08 1 30.19 7.5 29.47 30.49-1.31 41.76-3.34 83.51-5.82 125.22-.94 15.95-8.26 30.1-16.78 43.45-6.16 9.67-13.32 18.84-12.07 31.46.18 1.78-2.47 3.83-4.64 7-7.55-10.33-5.65-19.55-1.31-28.55 2.25-4.68 5.42-8.93 8.29-13.3A105.6 105.6 0 0 0 268 220.64c.17-33.42 2.18-66.82 3.34-100.23.16-4.69.09-9.41-.15-14.1-.38-7.17-3.47-12.2-11.43-12-7.75.19-11 4.75-11 12.25-.05 13.59-.23 27.18-.38 40.77-.1 8.37.07 16.75-.49 25.09-.33 4.93-1.85 9.79-2.84 14.68Z"></path>
            <path d="M145.31 175c-.22 2.67-.63 7.55-1.33 15.86-5.57-4.25-8.73-6.32-11.49-8.83-6.15-5.62-11.67-12-18.24-17.07-9.31-7.13-19.7-6-29.61-1-5.62 2.83-7.53 7.81-3 12.85 17 18.79 23.65 42.64 33.29 65.17 5.69 13.33 14.47 25.36 22 37.91 6.07 10.16 9.33 21 8.08 32.88-.27 2.59-2.4 5-5.18 10.41-2.18-6-4.23-9-4.22-12.05 0-10.92-3.6-20.53-9.52-29.38-14-21-24-43.78-33.12-67.26-4.21-10.84-12.15-20.49-19.24-30.07-8.53-11.53-6.52-22.76 6.27-29.66 13.7-7.4 31.56-5.41 44.06 4.59 5.94 4.73 12.17 9.01 21.25 15.65"></path>
        </g>
    </g>
</svg>