<svg preserveAspectRatio="xMidYMid meet" data-bbox="0 -0.003 276.296 307.966" viewBox="0 -0.003 276.296 307.966" xmlns="http://www.w3.org/2000/svg" data-type="shape" role="presentation" aria-hidden="true" aria-label="">
    <g>
        <g>
            <path d="M114.68 190a55.73 55.73 0 0 1 35.48-3.53c17.93 3.92 24.17 19.31 13.82 34.54-7.79 11.45-17.39 20.92-31.11 26.76 10 10.23 14.37 22.05 15.1 35.39 1.07 19.42-12.2 29.32-30.35 22.62-12.52-4.62-23.69-11.21-32.48-22.42-8.55 11.62-20 17.81-32.43 22.53-17.21 6.55-30.6-2.93-30.42-21.33.13-13.78 5.47-25.48 14.34-36.36-2.32-1.28-4.22-2.38-6.17-3.39C17.85 238.32 9 228 2.32 215.87c-5.66-10.27-.53-23.21 10.69-27.6 8.87-3.47 18.23-4 27.64-2.57 3.49.52 6.81 1.85 6.14 6.12-.71 4.53-4.4 3.54-7.78 3.64-7.25.22-14.61.4-21.68 1.85a9.49 9.49 0 0 0-6.48 13.78c6.63 12.24 15.53 22.3 29.23 27.33 9.47 3.47 16.51-2.88 24.46-5.33 2.95-.9 3.31-9.53 1.62-12.84-3.45-6.72-7.65-13.29-9.72-20.45-5-17.23.38-32.63 11.34-46 9-11 24.91-9.49 33.1 2.4 6.93 10.07 12.05 20.91 13.8 33.8m25 4.54c-17.35.16-31.28 8.68-38.93 22.34-2.77 5 .89 17 6 19.39 9.53 4.47 19.09 4.64 28.45-.5 10.08-5.54 17.21-14.08 22.82-23.85 3.39-5.92.65-12.46-6-14.6a110 110 0 0 0-12.3-2.75Zm-1.35 89.76c-.45-22.18-15.88-38.85-36.71-39.64a4.9 4.9 0 0 0-2.14.39c-8.28 3.72-11 8.42-10.77 17.74a28.22 28.22 0 0 0 9 20.16 59.84 59.84 0 0 0 24 13.94c11.09 3.58 16.9-.73 16.66-12.56Zm-59.68-31.54c-3-2.54-5.92-5.26-9.11-7.64a7 7 0 0 0-4.54-1.45c-19.48 2.61-36.5 26.89-32.46 46.12 1.19 5.65 5.35 9.59 10.62 8.41 14.39-3.2 27.24-9.28 35.07-22.72a12.7 12.7 0 0 0 1.26-6.35c-.07-5.27-.49-10.53-.84-16.37m3.48-37c7.92-.52 7.85-.57 11.9-6.19 2.35-3.27 4.67-6.68 7.59-9.39 3.22-3 3.7-6.33 3.23-10.27-1.21-10.32-5.85-19.24-11.57-27.62-5.83-8.56-13.45-8.73-19.6-.4-11 14.85-12.13 30.57-3.34 46.87 2.66 4.88 4.84 10.84 11.79 7m2.12 9.66a8.61 8.61 0 0 0-8.62 8.68 8.78 8.78 0 0 0 8.8 8.6 8.92 8.92 0 0 0 8.67-8.81 8.82 8.82 0 0 0-8.85-8.47"></path>
            <path d="M187.58 100.07c0-29.87-.07-59.74.08-89.61 0-4.09-2-10.63 5-10.46 6.27.16 4.45 6.34 4.47 10.28.15 23 .08 46.05 1.44 69.24 2.08-13.36 4.21-26.71 6.24-40.08 1.44-9.51 2.84-19 4.11-28.56.48-3.67.76-7.82 5.6-7.36 5.65.54 4.44 5.29 3.93 8.92q-4 28.56-8.37 57.09C208 83.3 205.82 97 203.74 110.81c-.26 1.69-.19 3.42-.31 6 4.28.25 8.22.63 12.17.67 4.1 0 6.1 1.91 6.1 6v28.11c0 4.62-2.47 6.18-6.75 6.09-5.52-.12-11 0-17.14 0 0 6.22-.49 11.71.11 17.09 1.07 9.55 2.91 19 4.2 28.53.85 6.27-.42 7.49-6.93 7.54-1.75 0-3.51-.18-5.27-.26-10.25-.49-10.54-.94-9-10.84 1.75-11 3.39-22 4.83-33 .35-2.63-.29-5.39-.54-9-5.35 0-10.09.12-14.83 0-6.81-.21-7.77-1.17-7.86-8.14-.1-7.85 0-15.71.06-23.56.09-7.28 1.2-8.38 8.3-8.55 2.24-.06 4.48 0 7.71 0-1.54-10.59-2.87-20.48-4.43-30.34-3.67-23.25-7.45-46.48-11.18-69.72-.16-1-.7-2.16-.37-3 .93-2.33 1.72-5.85 3.46-6.48 3.59-1.32 5.32 1.67 5.89 5 1.75 10.48 3.56 21 5.21 31.45 2.67 17 5.22 34 7.88 51a41 41 0 0 0 1.37 4.91Zm24.17 27.37h-39.47c0 6-.24 11.53.17 17 .1 1.36 2.32 3.62 3.61 3.65 11.78.28 23.57.17 35.69.17Z"></path>
            <path d="M202.88 296h-38c-3.88 0-9.24 1.12-9-5 .19-5.94 5.59-4.64 9.39-4.72 8.85-.18 17.71-.12 26.57-.13 15.69 0 31.39 0 47.08-.06 17.34-.11 26.82-9.47 27-26.72.12-13.93.15-27.86 0-41.78-.21-15.65-10.13-25.35-25.87-25.68-4.55-.1-9.15.12-13.63-.52-11.27-1.59-19.71-10.82-20.2-21.43-.16-3.34.42-6.76 4.17-6.72 1.72 0 4.37 3 4.94 5.12 2.76 10.17 7.24 14.61 17.64 13.85 30-2.19 45.1 17.36 43.16 43.48-.83 11.08-.11 22.27-.17 33.42-.12 22-14.68 36.75-36.55 36.9-12.23.08-24.41-.01-36.53-.01"></path>
            <path d="M206.58 229c1.92 12.61 3.83 24 5.33 35.55.51 3.86 3.06 9.68-3.43 10.49-5.77.72-5.08-5.13-5.8-8.86-1.51-7.9-2.78-15.84-5.47-23.71v22.71c0 1.77.52 3.87-.25 5.24-1 1.87-3.09 3.19-4.71 4.75-1.51-1.65-4.23-3.25-4.32-5-.46-9.34-.27-18.71-.3-28.07v-9.54l-1.69-.17c-1.27 8-2.56 16-3.81 24.06-.59 3.75-1 7.52-1.66 11.26-.58 3.38-.37 8-5.57 7.26-5.59-.77-4.16-5.35-3.66-9 1.29-9.52 2.71-19 4-28.54.34-2.45.5-4.93.72-7.13-.84-.58-1.21-1-1.63-1.1-3.44-.48-7.88-.05-7.71-5.14.17-5.48 4.79-4.94 8.54-4.94q37.55-.06 75.08 0c.76 0 1.73-.31 2.24 0 2.05 1.42 5.25 2.77 5.63 4.63.73 3.52-1.95 5.23-5.66 5.21-10.87-.07-21.74 0-32.61 0Z"></path>
            <path d="M180.19 168.83c-3.07 5.74-5.31 10.76-8.41 15.18-.91 1.3-4.24.9-6.46 1.28-.31-2.28-1.32-4.76-.77-6.81a47 47 0 0 1 4.69-11c1.09-1.88 3.65-4.53 5-4.25 2.01.45 3.54 3.18 5.95 5.6"></path>
        </g>
    </g>
</svg>