<svg preserveAspectRatio="xMidYMid meet" data-bbox="0.003 -0.03 405.539 423.43" viewBox="0.003 -0.03 405.539 423.43" xmlns="http://www.w3.org/2000/svg" data-type="shape" role="presentation" aria-hidden="true" aria-label="">
    <g>
        <g>
            <path d="M337.63 423.39c-5.76-1.16-11.54-2.23-17.28-3.5-39.38-8.73-79.22-6.19-119-4.88-30.4 1-60.86 3-91.14-1.07a110.5 110.5 0 0 1-28.78-7.81c-12.61-5.46-16.44-14.3-13.33-27.55 1.75-7.47 4.78-14.65 7.67-23.25-6.63 3.71-12.32 7.27-18.33 10.15-6.74 3.23-13.57 6.65-20.74 8.54-11.7 3.07-19.91-.72-26.7-10.72-16.73-24.78-12-60.17 10.73-81.53a126.4 126.4 0 0 1 34.43-22.59q21.38-9.75 43-19c5.53-2.37 9.15-5.24 10.34-11.87 1.48-8.19 4.74-16.07 6.85-22.87-11.4-3.89-22.55-7-33.09-11.5-12.51-5.36-22.12-14.65-27-27.46a268 268 0 0 1-10.48-34.93c-2.32-10 2.24-15.17 12.62-14.44a80.4 80.4 0 0 1 20.94 4.78c15.57 5.53 29.8 13.59 39.88 27 4.79 6.39 8 13.91 11.66 20.32L178.28 72c-3.49-1.6-7.58-3.13-11.33-5.25-22.29-12.61-29.76-28.27-27.46-58.72.21-2.78 2.72-5.38 4.17-8.06h9.41c4.57 2.63 9.24 5.09 13.68 7.91 13.67 8.69 24.15 19.92 28.19 38 4-5.71 7.31-10.34 10.57-15s6-9.39 10.69-12.54c4.6 3.21 2.28 5.51.48 8.18-8.9 13.27-18 26.41-26.36 40-8.11 13.37-15.32 27.2-22.52 41.38 21.25-10.87 41.12-4.77 60.62 3.65 9 3.91 10.57 10.6 3.87 17.82C211.73 151.52 183 164.1 149.77 150c-.55-.23-1.13-.37-1.68-.55-7.89 10.94-30.19 65.68-33.59 83 6.78-2.61 13.14-4.86 19.36-7.47 63.91-26.81 128.55-51.71 194.18-74 16.3-5.53 33.09-9.63 49.69-14.29a47.7 47.7 0 0 1 8.33-1.42c12.88-1.22 17.9 2.75 19 15.83 1.43 16.82-2.33 32.94-6.82 49-4.09 14.63-13.35 22.9-27.87 26-.31.06-.62.11-.92.19-25 6.91-25.13 6.85-38.7 28.71-6.05 9.75-13.66 15.87-25.59 18.57-11 2.5-21.6 8.24-31.61 13.9-16.62 9.4-33.3 18.53-52.72 24.53 1.69 1.15 2.28 1.9 2.91 1.93q48.86 2.64 97.72 5.15c13.77.72 27.67.52 41.27 2.44 23.59 3.33 38.13 18.49 41.63 42 1.06 7.09 1.1 14.36 1.18 21.56.08 6.52-3.07 11.36-9 14.26-4.22 2.06-8.47 4.08-12.69 6.16-9 4.43-17.56 9.54-23.61 17.9Zm-36.95-231.16a25 25 0 0 0-3.1.9c-17 7.23-34.12 14.27-51 21.78-41.52 18.47-83 37.06-126.19 51.39-2.38.79-4.7 2-7.14 2.3-1.42.17-3-1.09-4.53-1.71.66-1.25 1-3.05 2-3.65a54 54 0 0 1 7.78-3.27c23.41-8.94 47.07-17.29 70.19-26.92 39-16.25 77.76-33.29 116.59-50.05 2.26-1 4.78-2 6.36-3.76 5.51-6.13 10.66-12.59 17.38-20.63-4.13 1.32-6.13 1.92-8.11 2.62-16.85 5.91-33.78 11.62-50.53 17.79-70.57 26-140.68 53.2-209.16 84.39-12.9 5.87-25.1 12.86-35.61 22.55C6 304.08.76 331 12.47 354.7c6.67 13.51 14.29 16.9 28.22 11.61A122.4 122.4 0 0 0 59.11 357c17.34-10.22 35.05-19.58 54.73-24.49 24.91-6.22 49.83-12.42 74.81-18.34 27-6.39 53.08-14.8 76.84-29.59 12-7.46 24.52-14 38.41-17.36a1.21 1.21 0 0 0 .67-.77l-12.46-30.75c-2.53 1.18-5.08 2.28-7.54 3.53C240 261.83 193.69 280 146.44 296c-2.84 1-5.69 2.88-8.54-.48.79-5.06 5.29-4.89 8.49-6.12 28.07-10.81 56.4-21 84.2-32.4 19.4-8 38.16-17.51 57.07-26.64a10.58 10.58 0 0 0 4.94-6c2.94-10.36 5.33-20.96 8.08-32.13M84.5 357.48c11.72 1.87 22.83 3.62 33.93 5.41a32.3 32.3 0 0 1 6.4 1.34 3.49 3.49 0 0 1 1.68 2.86 3.6 3.6 0 0 1-2.22 2.49 11.9 11.9 0 0 1-4.55-.16c-8.67-1.31-17.33-2.71-26-4-15-2.29-16-1.61-19.31 13.2-.27 1.22-.39 2.47-.59 3.71-1.21 7.71 1.4 14 8.42 17.22 6.48 3 13.37 5.89 20.35 6.79 14.9 1.9 30 3.41 45 3.41 26 0 52-1.19 78.07-2 25.72-.84 51.42-1.68 77 2.75 2 .33 4 .39 5.14.5-2.89-8.71-5.68-17.11-8.83-26.64-20.87 0-43.08.56-65.25-.15a414.5 414.5 0 0 1-65.51-7.64c-.11-6.51 3.39-5.63 6.49-5.22 9.32 1.25 18.61 2.71 28 3.83a519.7 519.7 0 0 0 93 3c3-.18 6.62-.55 8.77-2.29a148 148 0 0 0 14.76-14.34c2.13-2.3 3.51-5.3 6.11-9.36-5.16 0-8.26.08-11.35 0-11.59-.38-23.18-.7-34.76-1.33-2-.11-4-1.59-6-2.43l.28-2.18c1.89-.57 3.79-1.6 5.68-1.6 3.75 0 7.49.83 11.25.87 11.19.13 22.39 0 33.32 0 2.32-7 4.36-13.07 6.48-19.45-13.34-.64-26.15-1.18-39-1.9-29.74-1.68-59.48-3.45-89.22-5.14a23.8 23.8 0 0 0-6.54.34c-12.44 2.84-24.84 5.85-37.25 8.8 16.81 3.07 33.58 5 50.27 7.52 16.48 2.48 33.28 3.31 49.66 7.73-1.5 6.34-5.33 4.8-8.51 4.37-23.91-3.25-47.8-6.71-71.73-9.84-27.22-3.55-54.28-5.41-80.35 6.64-5.89 2.61-10.37 5.61-13.09 12.89M313 263.32c8.73-4.74 12.75-11.89 16.51-19.12 5.68-10.95 14.22-17.95 26.33-20.86 7-1.69 13.82-4 20.65-6.24 6-1.94 10-5.84 12.59-11.75a113.4 113.4 0 0 0 9.22-38.16 96.4 96.4 0 0 0-.3-18.69c-.74-6.07-3-8-8.91-7-21.22 3.68-42.74 6.42-57.92 24.89-10 12.11-21.09 23.33-27.15 38.06-8.63 21.08-4.38 40.3 8.98 58.87m86.7 115.48c-.73-5.89-1-11.9-2.29-17.67-3.27-14.61-10.78-26.36-25.78-30.82-8.61-2.56-17.81-3.12-26.76-4.5-3.88-.59-7.06 1-8.38 4.56-2.13 5.79-4.79 11.73-5.19 17.74-.65 9.63-5.18 16.49-12 22.44-1.89 1.65-4 3-5.83 4.74-10.06 9.8-4.85 33.59 8.38 38.41a8 8 0 0 0 1.85.28c9 1 18 2.32 27.06 2.91 2.86.19 6.88-.54 8.58-2.45 8.05-9 18.8-13.5 29.34-18.15 8.05-3.54 11.87-8.74 11.02-17.49m-349.17-255a104.7 104.7 0 0 0 11.33 41.54c10.4 20.68 29.42 27.87 50.55 31.28 5 .81 8-1.73 9.07-7.16 2.44-12.58 1.43-24.25-6.77-34.74-13.87-17.72-32.64-26.78-54.26-30.8-2.88-.54-5.95-.08-9.92-.08Zm179.86-4.1c-12.13-6.4-24.21-10.06-37.27-10.74-8.14-.43-15.74.88-22.14 6.07-8.88 7.21-15 16.55-20.25 26.5 20.49 16.3 62.77 5.98 79.66-21.79Zm-46.81-55.32c3-6.8 5.15-13.79 3.74-21.51C184.51 27.38 163.21 8.52 147 7.19c-6.32 28.29 8.8 54.7 36.58 57.19"></path>
            <path d="M27.48 328.82c1.51-1 3-2.64 4.8-3.2 18.54-5.79 37.13-11.42 55.72-17.07 1.19-.36 2.59-.91 3.65-.59a5.87 5.87 0 0 1 3.24 2.55c.31.59-.78 2.18-1.57 3-.58.59-1.71.67-2.6.95Q62.87 323 35 331.45c-2.63.8-5.57 1.99-7.52-2.63"></path>
        </g>
    </g>
</svg>